<svg width="114" height="114" viewBox="0 0 114 114" fill="none" xmlns="http://www.w3.org/2000/svg">
<g filter="url(#filter0_d_5_4)">
<path fill-rule="evenodd" clip-rule="evenodd" d="M21.802 4.69231L109.087 91.4616C113.846 96.2308 114.614 103.462 110.776 107.923C107.628 111.538 103.176 113.231 98.3394 113.231H14.0485C6.75558 113.231 0.7677 107.231 0.7677 99.9231V13.6923C0.7677 9.84616 2.14952 5.23077 6.37174 2.61539C11.6687 -0.692305 17.8101 0.692311 21.802 4.69231Z" fill="white" stroke="black" stroke-width="2" stroke-miterlimit="22.9256"/>
<path d="M10.2101 101.692V74.8462H15.5839L21.9556 93.8462C22.5697 95.6154 22.9536 96.9231 23.2606 97.8462C23.5677 96.8462 24.0283 95.4615 24.7192 93.5385L31.1677 74.8462H35.9273V101.692H32.4728V79.2308L24.5657 101.692H21.3415L13.5879 78.8462V101.692H10.2101Z" fill="#575656"/>
<path d="M41.3778 101.692V74.8462H51.4344C53.5071 74.8462 55.1192 75.1539 56.3475 75.6923C57.5758 76.2308 58.5738 77.0769 59.2647 78.2308C59.9556 79.3846 60.3394 80.5385 60.3394 81.7692C60.3394 82.9231 60.0324 84 59.4182 85C58.8041 86 57.8829 86.8462 56.5778 87.4615C58.1899 87.9231 59.4182 88.7692 60.3394 89.9231C61.1839 91.0769 61.6445 92.4615 61.6445 94C61.6445 95.2308 61.4142 96.4615 60.8768 97.5385C60.3394 98.6154 59.7253 99.4615 58.8808 100.077C58.1132 100.692 57.1152 101.077 55.9637 101.385C54.8122 101.692 53.3536 101.846 51.6647 101.846H41.3778V101.692ZM44.9859 86.0769H50.8202C52.3556 86.0769 53.5071 86 54.198 85.7692C55.1192 85.5385 55.8101 85.0769 56.2707 84.4615C56.7313 83.8462 56.9616 83.0769 56.9616 82.0769C56.9616 81.1538 56.7313 80.3846 56.3475 79.6923C55.8869 79 55.2728 78.5385 54.5051 78.3077C53.7374 78.0769 52.3556 77.9231 50.4364 77.9231H45.0627V86.0769H44.9859ZM44.9859 98.5385H51.6647C52.8162 98.5385 53.5839 98.4615 54.0445 98.3846C54.8889 98.2308 55.5798 98 56.1172 97.6154C56.6546 97.2308 57.1152 96.7692 57.499 96.1539C57.8829 95.5385 58.0364 94.7692 58.0364 93.9231C58.0364 92.9231 57.8061 92.0769 57.2687 91.3077C56.7313 90.5385 56.0404 90.0769 55.1192 89.7692C54.198 89.4615 52.893 89.3077 51.2041 89.3077H44.9859V98.5385Z" fill="#575656"/>
<path d="M82.5253 98.5385V101.692H64.7919C64.7919 100.923 64.8687 100.154 65.1758 99.3846C65.6364 98.1538 66.3273 97 67.3253 95.8462C68.3232 94.6923 69.7818 93.3077 71.6243 91.7692C74.5414 89.3846 76.5374 87.4615 77.5354 86.0769C78.5333 84.6923 79.0707 83.3846 79.0707 82.0769C79.0707 80.7692 78.6101 79.6923 77.6889 78.7692C76.7677 77.8462 75.5394 77.3846 74.0041 77.3846C72.3919 77.3846 71.1636 77.8462 70.1657 78.8462C69.1677 79.8462 68.7071 81.1538 68.7071 82.7692L65.3293 82.3846C65.5596 79.8462 66.4041 77.9231 67.9394 76.6154C69.4748 75.3077 71.4707 74.6154 74.0041 74.6154C76.6142 74.6154 78.6101 75.3077 80.1455 76.7692C81.6808 78.2308 82.3717 80 82.3717 82.0769C82.3717 83.1538 82.1414 84.2308 81.6808 85.2308C81.2202 86.3077 80.5293 87.3846 79.5313 88.5385C78.5333 89.6923 76.8445 91.2308 74.4647 93.2308C72.4687 94.9231 71.2404 96 70.6263 96.6154C70.0889 97.2308 69.6283 97.7692 69.2445 98.3846H82.5253V98.5385Z" fill="#575656"/>
<path fill-rule="evenodd" clip-rule="evenodd" d="M23.0303 33.5385C30.093 33.5385 35.8505 39.3077 35.8505 46.3846C35.8505 53.4615 30.093 59.2308 23.0303 59.2308C15.9677 59.2308 10.2101 53.4615 10.2101 46.3846C10.2869 39.2308 15.9677 33.5385 23.0303 33.5385Z" fill="#575656"/>
<path fill-rule="evenodd" clip-rule="evenodd" d="M98.8768 75.0769L39.1516 15.7692C35.8506 12.5384 35.3899 7.53845 38 4.53845C40.1495 2.07691 43.1435 0.923065 46.5213 0.923065H104.097C109.087 0.923065 113.156 4.99999 113.156 9.99999V69C113.156 71.6154 112.158 74.7692 109.317 76.5385C105.786 78.6923 101.41 77.6154 98.8768 75.0769Z" fill="#FE7B10" stroke="black" stroke-width="0.5" stroke-miterlimit="22.9256"/>
<path fill-rule="evenodd" clip-rule="evenodd" d="M49.5152 49.7692C54.6586 49.7692 58.8808 53.9231 58.8808 59.1538C58.8808 64.3846 54.6586 68.4615 49.5152 68.4615C44.3718 68.4615 40.1495 64.3077 40.1495 59.0769C40.1495 53.8462 44.3718 49.7692 49.5152 49.7692Z" fill="#FE7B10"/>
<path d="M50.5899 17.8462L49.2081 16.4615L50.1293 14.4615L47.596 11.9231L45.6768 12.8462L44.295 11.4615L53.0465 7.61539L54.4283 9L50.5899 17.8462ZM50.7435 13L52.2021 9.76923L48.9778 11.2308L50.7435 13Z" fill="white"/>
<path d="M59.5717 22.2308L60.4162 23.8462C59.5717 24.3846 58.7273 24.5385 57.9596 24.4615C57.192 24.3846 56.4243 24 55.8101 23.3077C54.9657 22.4615 54.5818 21.4615 54.5818 20.3846C54.5818 19.2308 55.1192 18.2308 56.1172 17.2308C57.1919 16.1538 58.2667 15.6154 59.4182 15.6154C60.5697 15.6154 61.5677 16 62.4122 16.9231C63.1798 17.6923 63.5637 18.5385 63.6404 19.4615C63.6404 20 63.4869 20.6154 63.1031 21.3077L61.5677 20.3077C61.798 19.9231 61.9515 19.4615 61.8748 19.0769C61.798 18.6923 61.6445 18.2308 61.2606 17.9231C60.8 17.4615 60.2627 17.2308 59.6485 17.3077C59.0344 17.3846 58.3435 17.7692 57.5758 18.5385C56.8081 19.3077 56.3475 20.0769 56.2707 20.6923C56.194 21.3077 56.4243 21.8462 56.8849 22.3077C57.1919 22.6154 57.6526 22.8462 58.1132 22.8462C58.5738 22.8462 59.0344 22.5385 59.5717 22.2308Z" fill="white"/>
<path d="M67.2485 34.5385L65.8667 33.1539L66.7879 31.1539L64.2546 28.6154L62.3354 29.5385L60.9536 28.1539L69.7051 24.3077L71.0869 25.6923L67.2485 34.5385ZM67.402 29.6923L68.8606 26.4616L65.6364 27.9231L67.402 29.6923Z" fill="white"/>
<path d="M76.2304 30.8462L78.5334 33.1539C79.0708 33.6923 79.4546 34.1539 79.6081 34.4615C79.8384 34.9231 79.992 35.4615 79.992 36C79.992 36.5385 79.8384 37.0769 79.6081 37.6154C79.3778 38.1539 78.9172 38.6923 78.3031 39.3077C77.7657 39.8462 77.3051 40.2308 76.7677 40.4615C76.1536 40.7692 75.5394 40.9231 75.0021 40.9231C74.5415 40.9231 74.0809 40.7692 73.6203 40.5385C73.2364 40.3077 72.8526 40 72.392 39.5385L69.8586 37.1539L76.2304 30.8462ZM76.3839 33.1539L72.2384 37.3077L73.1597 38.2308C73.5435 38.6154 73.7738 38.8462 74.0041 38.9231C74.2344 39.0769 74.5415 39.1539 74.7718 39.1539C75.0021 39.1539 75.3091 39.0769 75.693 38.8462C76.0768 38.6154 76.4607 38.3077 76.998 37.8462C77.4586 37.3846 77.8425 36.9231 77.996 36.6154C78.1496 36.2308 78.2263 35.9231 78.2263 35.6154C78.2263 35.3077 78.1496 35 77.9192 34.6923C77.7657 34.4615 77.4586 34.0769 76.9213 33.6154L76.3839 33.1539Z" fill="white"/>
<path d="M78.2263 45.4615L84.5213 39.1538L89.2041 43.8461L88.1293 44.9231L84.7516 41.5385L83.3698 42.9231L86.5172 46.0769L85.4425 47.1538L82.295 44L80.6061 45.6923L84.1374 49.2308L83.0627 50.3077L78.2263 45.4615Z" fill="white"/>
<path d="M86.0566 53.3077L92.3515 47L94.2707 48.9231L91.1232 54.3846L96.5738 51.2308L98.4929 53.1538L92.198 59.4615L91.0465 58.3077L96.0364 53.3077L89.8182 57L88.5899 55.7692L92.2748 49.5385L87.2849 54.5385L86.0566 53.3077Z" fill="white"/>
<path d="M97.0344 64.3077L99.7212 61.6154L101.103 55.6154L102.562 57.0769L101.564 61.0769L105.556 60L107.014 61.4615L101.026 62.8462L98.3394 65.5385L97.0344 64.3077Z" fill="white"/>
</g>
<defs>
<filter id="filter0_d_5_4" x="-4.2323" y="-0.238251" width="122.455" height="122.469" filterUnits="userSpaceOnUse" color-interpolation-filters="sRGB">
<feFlood flood-opacity="0" result="BackgroundImageFix"/>
<feColorMatrix in="SourceAlpha" type="matrix" values="0 0 0 0 0 0 0 0 0 0 0 0 0 0 0 0 0 0 127 0" result="hardAlpha"/>
<feOffset dy="4"/>
<feGaussianBlur stdDeviation="2"/>
<feComposite in2="hardAlpha" operator="out"/>
<feColorMatrix type="matrix" values="0 0 0 0 0 0 0 0 0 0 0 0 0 0 0 0 0 0 0.25 0"/>
<feBlend mode="normal" in2="BackgroundImageFix" result="effect1_dropShadow_5_4"/>
<feBlend mode="normal" in="SourceGraphic" in2="effect1_dropShadow_5_4" result="shape"/>
</filter>
</defs>
</svg>
