<svg width="34" height="34" viewBox="0 0 34 34" fill="none" xmlns="http://www.w3.org/2000/svg">
<g clip-path="url(#clip0_5_32)">
<path fill-rule="evenodd" clip-rule="evenodd" d="M34 17C34 7.66197 26.338 0 17 0C7.66197 0 0 7.66197 0 17C0 26.338 7.66197 34 17 34C26.338 34 34 26.5775 34 17Z" fill="#9B9B9B"/>
<path d="M11.493 18.1972L13.6479 23.9437C13.6479 23.9437 13.8873 24.4225 14.1268 24.4225C14.3662 24.4225 18.4366 20.1127 18.4366 20.1127L22.9859 11.493L11.7324 16.7606L11.493 18.1972Z" fill="#C7D9E9"/>
<path d="M14.1268 19.6338L13.8873 23.9436C13.8873 23.9436 13.6479 25.1408 15.0845 23.9436C16.2817 22.7465 17.4789 21.7887 17.4789 21.7887L14.1268 19.6338Z" fill="#A0D8F7"/>
<path d="M11.493 18.4366L7.42254 17.2394C7.42254 17.2394 6.94366 17 7.1831 16.5211C7.1831 16.5211 7.1831 16.2817 7.42254 16.2817C8.38028 15.5634 24.4225 9.8169 24.4225 9.8169C24.4225 9.8169 24.9014 9.57746 25.1408 9.8169C25.3803 9.8169 25.3803 9.8169 25.3803 10.0563C25.3803 10.0563 25.3803 10.2958 25.3803 10.5352C25.3803 10.5352 25.3803 10.7746 25.3803 11.0141C25.3803 12.6901 22.2676 24.4225 22.2676 24.4225C22.2676 24.4225 22.2676 24.9014 21.5493 24.9014C21.3099 24.9014 21.0704 24.9014 20.5916 24.662C19.6338 23.4648 15.3239 20.5915 14.3662 19.8732C14.3662 19.8732 14.3662 19.8732 14.3662 19.6338V19.3944C14.3662 19.3944 21.7887 12.6901 22.0282 11.9718C22.0282 11.9718 22.0282 11.9718 21.7887 11.9718C21.3099 12.4507 12.6901 17.9577 11.493 18.4366C11.7324 18.4366 11.493 18.4366 11.493 18.4366Z" fill="white"/>
</g>
<defs>
<clipPath id="clip0_5_32">
<rect width="34" height="34" fill="white"/>
</clipPath>
</defs>
</svg>
