<svg width="34" height="34" viewBox="0 0 34 34" fill="none" xmlns="http://www.w3.org/2000/svg">
<path fill-rule="evenodd" clip-rule="evenodd" d="M34 17.0312C34 26.4514 26.389 34.0624 16.9688 34.0624C7.61101 34 0 26.389 0 17.0312C0 7.61101 7.61101 0 17.0312 0C26.389 0 34 7.61101 34 17.0312Z" fill="#9B9B9B"/>
<path fill-rule="evenodd" clip-rule="evenodd" d="M12.3523 11.0422C13.0385 11.1046 13.4752 11.4165 13.6624 12.0404C13.7871 12.4771 13.9119 13.6 13.9119 14.0991C13.9119 14.5358 13.7871 15.9083 13.6624 16.2826C13.6 16.5321 13.4752 16.5945 13.4128 16.8441C13.0385 16.8441 12.9137 17.0312 12.2275 16.345C12.1027 16.2202 12.1027 16.2202 12.0403 16.0954C11.666 15.6587 11.2293 14.7853 10.9174 14.2863C10.6055 13.6624 10.1688 12.9762 9.91924 12.3523C9.54493 11.4789 9.42016 10.8551 8.67154 10.6679H4.86603C4.74126 10.6679 4.61649 10.7303 4.49172 10.7927C4.36695 10.8551 4.30457 10.9798 4.30457 11.1046V11.2294C4.30457 11.4165 4.42934 11.6037 4.49172 11.7285C4.92842 12.789 5.73943 14.2863 6.23851 15.3468C6.3009 15.4716 6.3009 15.4716 6.36328 15.5963L6.92475 16.5945C6.98713 16.7193 6.98713 16.7193 7.04952 16.8441C7.42383 17.3431 7.86053 18.2165 8.23484 18.7156L10.044 21.0863C11.4789 22.5835 13.8495 23.956 15.9706 23.956C16.6569 23.956 18.1541 24.0807 18.466 23.5817C18.778 22.9578 18.4036 21.8349 19.1523 21.0239C19.5266 20.5872 19.8385 20.7119 20.2752 21.0239C20.4 21.0863 20.4 21.0863 20.4624 21.211C20.5247 21.2734 20.5247 21.2734 20.5871 21.2734L21.0862 21.8349C21.6477 22.4587 22.022 22.9578 22.7082 23.4569C23.644 24.2679 25.1413 23.956 26.2018 23.956C26.8881 23.956 28.7596 24.2055 28.7596 23.2074C28.7596 22.7707 28.3853 22.1468 28.1358 21.8349C27.5119 21.0239 26.5137 20.0881 25.7651 19.3395L25.4532 19.0899C25.3284 18.9652 25.3284 18.9028 25.2036 18.778C24.5798 18.1541 24.7046 17.7174 25.2036 17.0312C26.2018 15.534 28.7596 12.789 28.7596 11.2294C28.7596 10.8551 28.3229 10.7303 27.9486 10.7303H23.7688C23.1449 10.6055 22.8954 11.2918 22.7082 11.7908C22.022 13.4752 21.3358 14.411 20.4 15.8459C20.2752 16.033 19.5266 16.8441 19.277 16.8441C18.5908 16.8441 18.5284 15.7835 18.5284 15.0973L18.5908 11.4789C18.466 10.5431 18.2165 10.2936 17.4055 10.1688C16.3449 9.98166 14.3486 10.0441 13.3504 10.2312C12.9761 10.2312 12.4147 10.5431 12.3523 11.0422Z" fill="white"/>
</svg>
