<svg width="34" height="34" viewBox="0 0 34 34" fill="none" xmlns="http://www.w3.org/2000/svg">
<g clip-path="url(#clip0_5_38)">
<path fill-rule="evenodd" clip-rule="evenodd" d="M34 17C34 7.66197 26.338 0 17 0C7.66197 0 0 7.66197 0 17C0 26.338 7.66197 34 17 34C26.5775 34 34 26.5775 34 17Z" fill="#9B9B9B"/>
<path fill-rule="evenodd" clip-rule="evenodd" d="M16.2817 5.02817H17.4788C17.9577 5.02817 18.4366 5.02817 18.9155 5.2676C19.1549 5.2676 19.6338 5.50704 19.8732 5.50704C20.5915 5.74648 20.5915 5.74648 21.3098 5.98591L22.507 6.70422C23.2253 7.1831 23.4648 7.1831 23.9436 7.66197C24.4225 7.90141 24.6619 8.38028 24.9014 8.38028C24.9014 8.38028 24.9014 8.38028 25.1408 8.61972L26.0986 9.57746C26.0986 9.57746 26.338 9.57746 26.338 9.8169C26.338 10.0563 26.5774 10.0563 26.5774 10.0563C26.8169 10.2958 26.8169 10.5352 27.0563 10.7746C27.7746 12.2113 28.4929 14.1268 28.4929 15.5634C28.4929 15.8028 28.4929 15.5634 28.4929 15.8028V17C28.4929 17.7183 28.2535 18.4366 28.2535 18.9155C28.0141 19.6338 28.0141 20.1127 27.5352 20.831C27.2957 21.5493 26.5774 22.507 26.0986 23.2253C25.8591 23.7042 25.3803 24.1831 24.9014 24.662L23.9436 26.0986C23.4648 26.338 22.7465 26.8169 22.507 27.0563L21.0704 27.5352C19.8732 28.0141 18.676 28.2535 17.7183 28.2535H16.2817C15.5634 28.2535 14.845 28.0141 13.8873 27.7746C13.4084 27.7746 12.9295 27.5352 12.4507 27.2958L10.2957 26.338L9.09856 26.8169C8.61969 27.0563 8.38025 27.0563 8.14082 27.0563L5.98589 27.7746C5.98589 27.5352 6.22532 26.8169 6.22532 26.5775L6.7042 24.9014C7.18307 24.662 7.18307 24.662 7.18307 24.4225C7.42251 23.7042 7.42251 23.7042 7.18307 23.2253L6.7042 22.2676C6.46476 22.0282 6.22532 21.7887 6.22532 21.3099C5.98589 21.0704 5.98589 20.5915 5.74645 20.3521C5.74645 20.1127 5.50701 19.3944 5.50701 19.1549L5.26758 17.4789V16.2817C5.26758 15.3239 5.50701 14.1268 5.74645 13.4084C5.98589 12.9296 6.46476 11.7324 6.7042 11.2535C6.7042 11.0141 6.94363 11.0141 6.94363 10.7746C7.42251 9.8169 7.66194 9.57746 8.38025 8.85915L8.61969 8.61972C9.57744 7.42253 10.5352 6.70422 11.9718 6.22535C12.4507 5.98591 13.169 5.74648 13.8873 5.50704C14.1267 5.50704 14.1267 5.50704 14.3662 5.2676C15.0845 5.02817 15.5634 5.02817 16.2817 5.02817ZM12.2112 10.2958C13.6479 10.0563 13.6479 10.7746 14.1267 11.9718C14.3662 12.4507 14.6056 12.9296 14.6056 13.4084C14.845 14.1268 14.6056 14.3662 14.3662 14.6056C14.1267 14.8451 13.6479 15.3239 13.6479 15.8028C13.6479 16.0423 14.6056 17.2394 14.845 17.4789C14.845 17.4789 14.845 17.7183 15.0845 17.7183L16.2817 18.9155C16.7605 19.1549 17.9577 19.8732 18.676 20.1127C19.6338 20.3521 19.8732 18.4366 20.5915 18.4366C21.0704 18.4366 22.7465 19.3944 23.2253 19.6338C23.9436 19.8732 24.1831 19.8732 23.9436 20.5915C23.9436 21.5493 23.4648 22.2676 22.507 22.7465C21.0704 23.7042 19.6338 23.2253 18.1972 22.507C15.5634 21.5493 14.3662 20.5915 12.6901 18.6761C11.9718 17.9577 11.0141 16.2817 10.5352 15.3239C10.0563 14.1268 10.0563 12.6901 10.7746 11.7324C11.0141 11.0141 11.4929 10.5352 12.2112 10.2958Z" fill="white"/>
<path fill-rule="evenodd" clip-rule="evenodd" d="M12.2113 10.2958C11.493 10.5352 11.0141 11.0141 10.7747 11.7324C10.0563 12.6902 10.0563 14.1268 10.5352 15.324C11.0141 16.2817 11.9718 17.9578 12.6902 18.6761C14.3662 20.5916 15.5634 21.5493 18.1972 22.5071C19.8733 22.9859 21.0704 23.4648 22.5071 22.7465C23.4648 22.2676 23.9437 21.5493 23.9437 20.5916C23.9437 19.8733 23.9437 19.8732 23.2254 19.6338C22.7465 19.1549 21.0704 18.1972 20.5916 18.4366C19.8733 18.4366 19.6338 20.3521 18.6761 20.1127C17.9578 19.8732 16.7606 19.1549 16.2817 18.6761L15.0845 17.7183C15.0845 17.7183 15.0845 17.4789 14.8451 17.4789C14.6056 17 13.6479 16.0423 13.6479 15.8028C13.6479 15.5634 14.1268 15.0845 14.3662 14.6056C14.8451 14.1268 14.8451 13.8873 14.6056 13.4085C14.6056 12.9296 14.3662 12.4507 14.1268 11.9718C13.6479 10.7747 13.6479 10.0563 12.2113 10.2958Z" fill="#9B9B9B"/>
<path fill-rule="evenodd" clip-rule="evenodd" d="M6.22535 28.0141C5.98592 27.7746 5.98592 27.7746 6.22535 28.0141C6.22535 28.0141 5.98592 28.0141 6.22535 28.0141Z" fill="#A4D59D"/>
</g>
<defs>
<clipPath id="clip0_5_38">
<rect width="34" height="34" fill="white"/>
</clipPath>
</defs>
</svg>
